<?xml version="1.0" encoding="iso-8859-1"?>
<!-- Generator: Adobe Illustrator 19.0.0, SVG Export Plug-In . SVG Version: 6.00 Build 0)  -->
<svg fill='#fff' width='22' version="1.1" id="Layer_1" xmlns="http://www.w3.org/2000/svg" xmlns:xlink="http://www.w3.org/1999/xlink" x="0px" y="0px"
	 viewBox="0 0 512 512" style="enable-background:new 0 0 512 512;" xml:space="preserve">
<g>
	<g>
		<g>
			<path d="M490.442,286.341V120.395c0-22.288-18.132-40.421-40.421-40.421h-35.49L398.97,37.087
				c-3.319-9.147-10.507-16.167-19.721-19.259c-9.202-3.088-19.15-1.829-27.293,3.454l-36.39,23.597l-2.827-7.792
				c-3.319-9.147-10.507-16.167-19.721-19.259c-9.202-3.088-19.149-1.829-27.293,3.454l-19.065,12.362
				c-3.746,2.429-4.814,7.435-2.384,11.181c2.431,3.747,7.435,4.813,11.182,2.384l19.065-12.362
				c3.983-2.585,8.849-3.201,13.353-1.691c4.514,1.514,8.037,4.957,9.666,9.446l4.102,11.306l-123.487,80.078H121.64l106.421-69.01
				c3.746-2.43,4.813-7.435,2.384-11.181c-2.431-3.747-7.435-4.814-11.182-2.384l-44.148,28.631
				c-0.338-0.044-0.684-0.066-1.035-0.066H61.979C27.803,79.975,0,107.777,0,141.952v302.68c0,28.232,22.969,51.2,51.2,51.2h388.042
				c28.231,0,51.2-22.968,51.2-51.199v-32.876c0-4.465-3.618-8.084-8.084-8.084c-4.466,0-8.084,3.62-8.084,8.084v32.876
				c0,19.316-15.715,35.032-35.032,35.032H91.621V239.292c0-4.465-3.619-8.084-8.084-8.084s-8.084,3.62-8.084,8.084v240.372H51.2
				c-19.317,0-35.032-15.715-35.032-35.032v-260.74c11.344,12.451,27.68,20.274,45.81,20.274h388.042
				c9.092,0,17.493-3.018,24.253-8.103v89.157h-153.6c-28.231,0-51.2,22.968-51.2,51.199v0.189c0,28.231,22.969,51.199,51.2,51.199
				h161.684c16.344,0,29.642-13.297,29.642-29.642v-43.303C512,301.319,502.87,289.868,490.442,286.341z M450.021,96.142
				c13.372,0,24.253,10.879,24.253,24.253v13.591H434.13l-13.731-37.844H450.021z M450.021,187.998H61.979
				c-25.26,0-45.81-20.55-45.81-45.809v-0.236c0-25.259,20.55-45.809,45.81-45.809h88.304l-58.359,37.844H72.758
				c-4.466,0-8.084,3.62-8.084,8.084c0,4.465,3.618,8.084,8.084,8.084H94.2c0.082,0.001,0.164,0.001,0.247,0h85.985
				c0.082,0.001,0.164,0.001,0.247,0h161.553c4.466,0,8.084-3.62,8.084-8.084c0-4.465-3.618-8.084-8.084-8.084h-134.36
				l152.882-99.138c3.983-2.585,8.848-3.201,13.353-1.691c4.514,1.514,8.037,4.957,9.665,9.446l33.158,91.384H374.57
				c-4.466,0-8.084,3.62-8.084,8.084c0,4.465,3.618,8.084,8.084,8.084h53.707c0.126,0.003,0.251,0.003,0.376,0h45.621v13.591
				C474.274,177.119,463.393,187.998,450.021,187.998z M495.832,358.166c0,7.429-6.044,13.474-13.474,13.474H320.674
				c-19.317,0-35.032-15.715-35.032-35.031v-0.189c0-19.316,15.715-35.032,35.032-35.032h161.587c0.056,0.001,0.115,0.001,0.174,0
				c7.393,0.042,13.397,6.07,13.397,13.474V358.166z"/>
			<path d="M326.063,312.227c-13.372,0-24.253,10.895-24.253,24.287s10.88,24.287,24.253,24.287s24.253-10.894,24.253-24.287
				S339.436,312.227,326.063,312.227z M326.063,344.634c-4.458,0-8.084-3.642-8.084-8.12c0-4.478,3.626-8.12,8.084-8.12
				c4.458,0,8.084,3.642,8.084,8.12C334.147,340.992,330.521,344.634,326.063,344.634z"/>
		</g>
	</g>
</g>
<g>
</g>
<g>
</g>
<g>
</g>
<g>
</g>
<g>
</g>
<g>
</g>
<g>
</g>
<g>
</g>
<g>
</g>
<g>
</g>
<g>
</g>
<g>
</g>
<g>
</g>
<g>
</g>
<g>
</g>
</svg>
